# xmcd
#
# Track frame offsets: 
#        150
#        21964
#        35999
#        50831
#        72945
#        109858
#        126060
#        142973
#        163606
#        174445
#        187945
#        201048
#        210594
#        221650
#
# Disc length: 3122 seconds
#
# Revision: 1
# Processed by: cddbd v1.5.2PL0 Copyright (c) Steve Scherf et al.
# Submitted via: ExactAudioCopyFreeDBPlugin 1.0
#
DISCID=d10c300e
DTITLE=Various Artist - Soul Bag sampler Mar 2006
DYEAR=2006
DGENRE=Blues
TTITLE0=Bill Doggett - Anahuac breakdown
TTITLE1=J.J. Milteau with Demi Evans - Jack the man
TTITLE2=Susan Tedeschi - Soul of a man
TTITLE3=Otis Rush - All your love (I miss loving)
TTITLE4=Tail Dragger - Prison blues
TTITLE5=Harrison Kennedy - 40 acres and a mule
TTITLE6=Rod Piazza and The Mighty Flyers - Got to find my baby
TTITLE7=Byther Smith - Addressing the nation with the blues
TTITLE8=Jeff Zima - What a life
TTITLE9=Napoleon Washington - Let it roll
TTITLE10=Bo Weavil - Love her all the time
TTITLE11=Dave Bartholomew - Shrimp and gumbo
TTITLE12=Smiley Lewis - The bells are ringin'
TTITLE13=Tommy Ridgley - Ooh lawdy my baby
EXTD=supplément à Soul Bag N°182, mars 2006
EXTT0=1978
EXTT1=
EXTT2=
EXTT3=1976
EXTT4=
EXTT5=
EXTT6=
EXTT7=1985
EXTT8=
EXTT9=
EXTT10=
EXTT11=1955
EXTT12=1952
EXTT13=1953
PLAYORDER=
